<svg version="1.1" id="Layer_1" xmlns="http://www.w3.org/2000/svg" xmlns:xlink="http://www.w3.org/1999/xlink" x="0px" y="0px" viewBox="0 0 236.93813 250" style="enable-background:new 0 0 236.93813 250;" xml:space="preserve"><defs><style> .svg-style-0 {  fill: rgb(0, 0, 0); }</style></defs><path id="Path_01" d="M159.41136,40.99977c-0.45177-0.21346-1.08221,0.14895-1.4198,0.81415
	c-0.3326,0.67016-0.23331,1.38998,0.21843,1.61835c0.45175,0.2234,1.08223-0.14395,1.4198-0.81414
	C159.95244,41.94796,159.86308,41.22813,159.41136,40.99977z M165.8748,42.66281c-0.45174-0.2234-1.08221,0.13401-1.41481,0.81412
	c-0.32762,0.66522-0.23827,1.39001,0.21347,1.61338c0.45175,0.21843,1.0822-0.14395,1.41977-0.80914
	C166.42586,43.61097,166.32655,42.89115,165.8748,42.66281z M162.62321,40.22535c-0.25319-0.1092-0.54109,0.00994-0.65031,0.26312
	l-2.5417,5.87766c-0.10919,0.25318,0.00497,0.54112,0.25815,0.65032c0.06454,0.03475,0.12909,0.04469,0.19856,0.04469
	c0.18864,0,0.37231-0.10923,0.45177-0.29784l2.54666-5.87769C162.99553,40.63242,162.8764,40.33458,162.62321,40.22535z
	 M200.34659,203.30611l-1.31055-5.35643c-0.06453-0.26311-0.33263-0.42197-0.59572-0.3624
	c-0.27303,0.06453-0.43188,0.33759-0.37231,0.5957l1.31058,5.35646c0.0546,0.23331,0.26309,0.37726,0.48648,0.37726
	c0.03972,0,0.07445,0,0.11914-0.00992C200.24733,203.84723,200.40616,203.57416,200.34659,203.30611z M208.90498,238.32394
	l-7.42157-30.38618c-0.07446-0.27303-0.34253-0.43686-0.60565-0.36238c-0.27303,0.06451-0.43188,0.3326-0.37231,0.59569
	l7.4315,30.38622c0.06454,0.22838,0.26309,0.38226,0.4865,0.38226c0.03972,0,0.08438-0.00993,0.11913-0.01988
	C208.8156,238.85513,208.97447,238.58707,208.90498,238.32394z M164.06287,232.43636
	c-0.28297-0.02483-0.50636,0.21843-0.50636,0.49146l-0.06454,4.37848c0,0.26808,0.21843,0.49641,0.49643,0.49641c0,0,0,0,0.00993,0
	c0.26807,0,0.4865-0.21841,0.49643-0.48648l0.0546-4.3735C164.54935,232.66472,164.33092,232.43636,164.06287,232.43636z
	 M208.90498,238.32394l-7.42157-30.38618c-0.07446-0.27303-0.34253-0.43686-0.60565-0.36238
	c-0.27303,0.06451-0.43188,0.3326-0.37231,0.59569l7.4315,30.38622c0.06454,0.22838,0.26309,0.38226,0.4865,0.38226
	c0.03972,0,0.08438-0.00993,0.11913-0.01988C208.8156,238.85513,208.97447,238.58707,208.90498,238.32394z M200.34659,203.30611
	l-1.31055-5.35643c-0.06453-0.26311-0.33263-0.42197-0.59572-0.3624c-0.27303,0.06453-0.43188,0.33759-0.37231,0.5957
	l1.31058,5.35646c0.0546,0.23331,0.26309,0.37726,0.48648,0.37726c0.03972,0,0.07445,0,0.11914-0.00992
	C200.24733,203.84723,200.40616,203.57416,200.34659,203.30611z M164.06287,232.43636
	c-0.28297-0.02483-0.50636,0.21843-0.50636,0.49146l-0.06454,4.37848c0,0.26808,0.21843,0.49641,0.49643,0.49641c0,0,0,0,0.00993,0
	c0.26807,0,0.4865-0.21841,0.49643-0.48648l0.0546-4.3735C164.54935,232.66472,164.33092,232.43636,164.06287,232.43636z
	 M146.77235,86.80993c-0.28297-0.58578-0.73967-1.03754-1.28079-1.29072c-0.27303-0.11417-0.54605-0.17871-0.81412-0.18861
	c-0.31772-0.02485-0.6255,0.04465-0.91344,0.1787c-0.02481,0.01984-0.0546,0.02979-0.07941,0.04963
	c-0.99286,0.54111-1.33539,1.92117-0.7496,3.12254c0.18864,0.3872,0.46167,0.71482,0.76448,0.9581
	c0.29787,0.24324,0.64534,0.41201,0.99284,0.47655c0.14893,0.03475,0.28297,0.05463,0.42693,0.05463
	c0.28793,0,0.57089-0.06454,0.81911-0.18864C147.00569,89.4658,147.36807,88.05099,146.77235,86.80993z M145.50647,89.08851
	c-0.25317,0.1142-0.54112,0.1142-0.81911,0c-0.33757-0.13898-0.65031-0.43686-0.84888-0.83896
	c-0.07448-0.13898-0.11917-0.26309-0.14398-0.39217c0,0,0,0,0-0.00497c-0.03969-0.13898-0.0546-0.27303-0.0546-0.40707
	c0-0.13898,0.01491-0.26309,0.0546-0.38223c0.0695-0.29787,0.25319-0.53117,0.5014-0.65528
	c0.12907-0.0546,0.25317-0.09432,0.39713-0.09432c0.02979,0,0.06454,0,0.09433,0.00994
	c0.1241,0.0099,0.25317,0.04465,0.38722,0.09926c0.3326,0.15389,0.62053,0.44183,0.8042,0.82408
	C146.23621,87.98646,146.07735,88.80557,145.50647,89.08851z M208.90498,238.32394l-7.42157-30.38618
	c-0.07446-0.27303-0.34253-0.43686-0.60565-0.36238c-0.27303,0.06451-0.43188,0.3326-0.37231,0.59569l7.4315,30.38622
	c0.06454,0.22838,0.26309,0.38226,0.4865,0.38226c0.03972,0,0.08438-0.00993,0.11913-0.01988
	C208.8156,238.85513,208.97447,238.58707,208.90498,238.32394z M200.34659,203.30611l-1.31055-5.35643
	c-0.06453-0.26311-0.33263-0.42197-0.59572-0.3624c-0.27303,0.06453-0.43188,0.33759-0.37231,0.5957l1.31058,5.35646
	c0.0546,0.23331,0.26309,0.37726,0.48648,0.37726c0.03972,0,0.07445,0,0.11914-0.00992
	C200.24733,203.84723,200.40616,203.57416,200.34659,203.30611z M164.06287,232.43636
	c-0.28297-0.02483-0.50636,0.21843-0.50636,0.49146l-0.06454,4.37848c0,0.26808,0.21843,0.49641,0.49643,0.49641c0,0,0,0,0.00993,0
	c0.26807,0,0.4865-0.21841,0.49643-0.48648l0.0546-4.3735C164.54935,232.66472,164.33092,232.43636,164.06287,232.43636z
	 M146.77235,86.80993c-0.28297-0.58578-0.73967-1.03754-1.28079-1.29072c-0.27303-0.11417-0.54605-0.17871-0.81412-0.18861
	c-0.31772-0.02485-0.6255,0.04465-0.91344,0.1787c-0.02481,0.01984-0.0546,0.02979-0.07941,0.04963
	c-0.99286,0.54111-1.33539,1.92117-0.7496,3.12254c0.18864,0.3872,0.46167,0.71482,0.76448,0.9581
	c0.29787,0.24324,0.64534,0.41201,0.99284,0.47655c0.14893,0.03475,0.28297,0.05463,0.42693,0.05463
	c0.28793,0,0.57089-0.06454,0.81911-0.18864C147.00569,89.4658,147.36807,88.05099,146.77235,86.80993z M145.50647,89.08851
	c-0.25317,0.1142-0.54112,0.1142-0.81911,0c-0.33757-0.13898-0.65031-0.43686-0.84888-0.83896
	c-0.07448-0.13898-0.11917-0.26309-0.14398-0.39217c0,0,0,0,0-0.00497c-0.03969-0.13898-0.0546-0.27303-0.0546-0.40707
	c0-0.13898,0.01491-0.26309,0.0546-0.38223c0.0695-0.29787,0.25319-0.53117,0.5014-0.65528
	c0.12907-0.0546,0.25317-0.09432,0.39713-0.09432c0.02979,0,0.06454,0,0.09433,0.00994
	c0.1241,0.0099,0.25317,0.04465,0.38722,0.09926c0.3326,0.15389,0.62053,0.44183,0.8042,0.82408
	C146.23621,87.98646,146.07735,88.80557,145.50647,89.08851z M146.77235,86.80993c-0.28297-0.58578-0.73967-1.03754-1.28079-1.29072
	c-0.27303-0.11417-0.54605-0.17871-0.81412-0.18861c-0.31772-0.02485-0.6255,0.04465-0.91344,0.1787
	c-0.02481,0.01984-0.0546,0.02979-0.07941,0.04963c-0.99286,0.54111-1.33539,1.92117-0.7496,3.12254
	c0.18864,0.3872,0.46167,0.71482,0.76448,0.9581c0.29787,0.24324,0.64534,0.41201,0.99284,0.47655
	c0.14893,0.03475,0.28297,0.05463,0.42693,0.05463c0.28793,0,0.57089-0.06454,0.81911-0.18864
	C147.00569,89.4658,147.36807,88.05099,146.77235,86.80993z M145.50647,89.08851c-0.25317,0.1142-0.54112,0.1142-0.81911,0
	c-0.33757-0.13898-0.65031-0.43686-0.84888-0.83896c-0.07448-0.13898-0.11917-0.26309-0.14398-0.39217c0,0,0,0,0-0.00497
	c-0.03969-0.13898-0.0546-0.27303-0.0546-0.40707c0-0.13898,0.01491-0.26309,0.0546-0.38223
	c0.0695-0.29787,0.25319-0.53117,0.5014-0.65528c0.12907-0.0546,0.25317-0.09432,0.39713-0.09432
	c0.02979,0,0.06454,0,0.09433,0.00994c0.1241,0.0099,0.25317,0.04465,0.38722,0.09926
	c0.3326,0.15389,0.62053,0.44183,0.8042,0.82408C146.23621,87.98646,146.07735,88.80557,145.50647,89.08851z M169.21576,35.44973
	v0.95313c0.0546-0.2879,0.10921-0.47158,0.10921-0.47655C169.37956,35.75751,169.32993,35.57384,169.21576,35.44973z
	 M168.42146,42.19617c-1.66301-0.94322-2.71046-2.22401-3.12251-3.81255c-0.86874-3.36578,1.3602-7.07903,1.38998-7.11378
	c0.14398-0.23334,0.06952-0.54112-0.16382-0.68507c-0.23331-0.14395-0.54109-0.07448-0.68504,0.15886
	c-0.09929,0.17374-2.48213,4.10048-1.50916,7.88324c0.47658,1.8616,1.68787,3.36078,3.60405,4.43308
	c0.06952,0.04466,0.15886,0.06454,0.24326,0.06454c0.16879,0,0.34253-0.08936,0.43188-0.25318
	C168.74416,42.638,168.6548,42.33018,168.42146,42.19617z M155.73779,37.44537c-3.88205-0.0546-4.45293-2.76509-4.47777-2.8892
	c-0.04466-0.26312-0.30779-0.44183-0.58081-0.39714c-0.26805,0.0546-0.45174,0.30778-0.39713,0.57584
	c0.00993,0.03972,0.71484,3.63881,5.43585,3.70334c0.00992,0,0.00992,0,0.00992,0c0.26808,0,0.49643-0.21843,0.49643-0.48648
	C156.23422,37.66877,156.00586,37.44537,155.73779,37.44537z M155.3506,33.98527c-2.85445-0.65031-3.08778-3.1672-3.08778-3.92671
	c0-0.11417,0.00497-0.19858,0.00497-0.21346c0.01984-0.27303-0.18864-0.50636-0.45671-0.53615
	c-0.27306-0.02481-0.5163,0.18368-0.53615,0.46167c-0.00993,0.03475-0.29784,4.24443,3.85724,5.18268
	c0.03474,0.00994,0.06947,0.01988,0.10919,0.01988c0.2234,0,0.4319-0.16383,0.4865-0.3922
	C155.79239,34.31293,155.61865,34.0399,155.3506,33.98527z M164.06287,232.43636c-0.28297-0.02483-0.50636,0.21843-0.50636,0.49146
	l-0.06454,4.37848c0,0.26808,0.21843,0.49641,0.49643,0.49641c0,0,0,0,0.00993,0c0.26807,0,0.4865-0.21841,0.49643-0.48648
	l0.0546-4.3735C164.54935,232.66472,164.33092,232.43636,164.06287,232.43636z M200.34659,203.30611l-1.31055-5.35643
	c-0.06453-0.26311-0.33263-0.42197-0.59572-0.3624c-0.27303,0.06453-0.43188,0.33759-0.37231,0.5957l1.31058,5.35646
	c0.0546,0.23331,0.26309,0.37726,0.48648,0.37726c0.03972,0,0.07445,0,0.11914-0.00992
	C200.24733,203.84723,200.40616,203.57416,200.34659,203.30611z M208.90498,238.32394l-7.42157-30.38618
	c-0.07446-0.27303-0.34253-0.43686-0.60565-0.36238c-0.27303,0.06451-0.43188,0.3326-0.37231,0.59569l7.4315,30.38622
	c0.06454,0.22838,0.26309,0.38226,0.4865,0.38226c0.03972,0,0.08438-0.00993,0.11913-0.01988
	C208.8156,238.85513,208.97447,238.58707,208.90498,238.32394z M208.90498,238.32394l-7.42157-30.38618
	c-0.07446-0.27303-0.34253-0.43686-0.60565-0.36238c-0.27303,0.06451-0.43188,0.3326-0.37231,0.59569l7.4315,30.38622
	c0.06454,0.22838,0.26309,0.38226,0.4865,0.38226c0.03972,0,0.08438-0.00993,0.11913-0.01988
	C208.8156,238.85513,208.97447,238.58707,208.90498,238.32394z M200.34659,203.30611l-1.31055-5.35643
	c-0.06453-0.26311-0.33263-0.42197-0.59572-0.3624c-0.27303,0.06453-0.43188,0.33759-0.37231,0.5957l1.31058,5.35646
	c0.0546,0.23331,0.26309,0.37726,0.48648,0.37726c0.03972,0,0.07445,0,0.11914-0.00992
	C200.24733,203.84723,200.40616,203.57416,200.34659,203.30611z M164.06287,232.43636
	c-0.28297-0.02483-0.50636,0.21843-0.50636,0.49146l-0.06454,4.37848c0,0.26808,0.21843,0.49641,0.49643,0.49641c0,0,0,0,0.00993,0
	c0.26807,0,0.4865-0.21841,0.49643-0.48648l0.0546-4.3735C164.54935,232.66472,164.33092,232.43636,164.06287,232.43636z
	 M164.06287,232.43636c-0.28297-0.02483-0.50636,0.21843-0.50636,0.49146l-0.06454,4.37848
	c0,0.26808,0.21843,0.49641,0.49643,0.49641c0,0,0,0,0.00993,0c0.26807,0,0.4865-0.21841,0.49643-0.48648l0.0546-4.3735
	C164.54935,232.66472,164.33092,232.43636,164.06287,232.43636z M200.34659,203.30611l-1.31055-5.35643
	c-0.06453-0.26311-0.33263-0.42197-0.59572-0.3624c-0.27303,0.06453-0.43188,0.33759-0.37231,0.5957l1.31058,5.35646
	c0.0546,0.23331,0.26309,0.37726,0.48648,0.37726c0.03972,0,0.07445,0,0.11914-0.00992
	C200.24733,203.84723,200.40616,203.57416,200.34659,203.30611z M208.90498,238.32394l-7.42157-30.38618
	c-0.07446-0.27303-0.34253-0.43686-0.60565-0.36238c-0.27303,0.06451-0.43188,0.3326-0.37231,0.59569l7.4315,30.38622
	c0.06454,0.22838,0.26309,0.38226,0.4865,0.38226c0.03972,0,0.08438-0.00993,0.11913-0.01988
	C208.8156,238.85513,208.97447,238.58707,208.90498,238.32394z M208.90498,238.32394l-7.42157-30.38618
	c-0.07446-0.27303-0.34253-0.43686-0.60565-0.36238c-0.27303,0.06451-0.43188,0.3326-0.37231,0.59569l7.4315,30.38622
	c0.06454,0.22838,0.26309,0.38226,0.4865,0.38226c0.03972,0,0.08438-0.00993,0.11913-0.01988
	C208.8156,238.85513,208.97447,238.58707,208.90498,238.32394z M200.34659,203.30611l-1.31055-5.35643
	c-0.06453-0.26311-0.33263-0.42197-0.59572-0.3624c-0.27303,0.06453-0.43188,0.33759-0.37231,0.5957l1.31058,5.35646
	c0.0546,0.23331,0.26309,0.37726,0.48648,0.37726c0.03972,0,0.07445,0,0.11914-0.00992
	C200.24733,203.84723,200.40616,203.57416,200.34659,203.30611z M164.06287,232.43636
	c-0.28297-0.02483-0.50636,0.21843-0.50636,0.49146l-0.06454,4.37848c0,0.26808,0.21843,0.49641,0.49643,0.49641c0,0,0,0,0.00993,0
	c0.26807,0,0.4865-0.21841,0.49643-0.48648l0.0546-4.3735C164.54935,232.66472,164.33092,232.43636,164.06287,232.43636z
	 M164.06287,232.43636c-0.28297-0.02483-0.50636,0.21843-0.50636,0.49146l-0.06454,4.37848
	c0,0.26808,0.21843,0.49641,0.49643,0.49641c0,0,0,0,0.00993,0c0.26807,0,0.4865-0.21841,0.49643-0.48648l0.0546-4.3735
	C164.54935,232.66472,164.33092,232.43636,164.06287,232.43636z M179.6953,47.72139c-0.18367-0.03972-0.36736,0.02481-0.4865,0.1638
	h1.03752C179.93854,47.77599,179.72011,47.72636,179.6953,47.72139z M200.34659,203.30611l-1.31055-5.35643
	c-0.06453-0.26311-0.33263-0.42197-0.59572-0.3624c-0.27303,0.06453-0.43188,0.33759-0.37231,0.5957l1.31058,5.35646
	c0.0546,0.23331,0.26309,0.37726,0.48648,0.37726c0.03972,0,0.07445,0,0.11914-0.00992
	C200.24733,203.84723,200.40616,203.57416,200.34659,203.30611z M208.90498,238.32394l-7.42157-30.38618
	c-0.07446-0.27303-0.34253-0.43686-0.60565-0.36238c-0.27303,0.06451-0.43188,0.3326-0.37231,0.59569l7.4315,30.38622
	c0.06454,0.22838,0.26309,0.38226,0.4865,0.38226c0.03972,0,0.08438-0.00993,0.11913-0.01988
	C208.8156,238.85513,208.97447,238.58707,208.90498,238.32394z M164.06287,232.43636
	c-0.28297-0.02483-0.50636,0.21843-0.50636,0.49146l-0.06454,4.37848c0,0.26808,0.21843,0.49641,0.49643,0.49641c0,0,0,0,0.00993,0
	c0.26807,0,0.4865-0.21841,0.49643-0.48648l0.0546-4.3735C164.54935,232.66472,164.33092,232.43636,164.06287,232.43636z
	 M200.34659,203.30611l-1.31055-5.35643c-0.06453-0.26311-0.33263-0.42197-0.59572-0.3624
	c-0.27303,0.06453-0.43188,0.33759-0.37231,0.5957l1.31058,5.35646c0.0546,0.23331,0.26309,0.37726,0.48648,0.37726
	c0.03972,0,0.07445,0,0.11914-0.00992C200.24733,203.84723,200.40616,203.57416,200.34659,203.30611z M208.90498,238.32394
	l-7.42157-30.38618c-0.07446-0.27303-0.34253-0.43686-0.60565-0.36238c-0.27303,0.06451-0.43188,0.3326-0.37231,0.59569
	l7.4315,30.38622c0.06454,0.22838,0.26309,0.38226,0.4865,0.38226c0.03972,0,0.08438-0.00993,0.11913-0.01988
	C208.8156,238.85513,208.97447,238.58707,208.90498,238.32394z M208.90498,238.32394l-7.42157-30.38618
	c-0.07446-0.27303-0.34253-0.43686-0.60565-0.36238c-0.27303,0.06451-0.43188,0.3326-0.37231,0.59569l7.4315,30.38622
	c0.06454,0.22838,0.26309,0.38226,0.4865,0.38226c0.03972,0,0.08438-0.00993,0.11913-0.01988
	C208.8156,238.85513,208.97447,238.58707,208.90498,238.32394z M200.34659,203.30611l-1.31055-5.35643
	c-0.06453-0.26311-0.33263-0.42197-0.59572-0.3624c-0.27303,0.06453-0.43188,0.33759-0.37231,0.5957l1.31058,5.35646
	c0.0546,0.23331,0.26309,0.37726,0.48648,0.37726c0.03972,0,0.07445,0,0.11914-0.00992
	C200.24733,203.84723,200.40616,203.57416,200.34659,203.30611z M164.06287,232.43636
	c-0.28297-0.02483-0.50636,0.21843-0.50636,0.49146l-0.06454,4.37848c0,0.26808,0.21843,0.49641,0.49643,0.49641c0,0,0,0,0.00993,0
	c0.26807,0,0.4865-0.21841,0.49643-0.48648l0.0546-4.3735C164.54935,232.66472,164.33092,232.43636,164.06287,232.43636z
	 M164.06287,232.43636c-0.28297-0.02483-0.50636,0.21843-0.50636,0.49146l-0.06454,4.37848
	c0,0.26808,0.21843,0.49641,0.49643,0.49641c0,0,0,0,0.00993,0c0.26807,0,0.4865-0.21841,0.49643-0.48648l0.0546-4.3735
	C164.54935,232.66472,164.33092,232.43636,164.06287,232.43636z M200.34659,203.30611l-1.31055-5.35643
	c-0.06453-0.26311-0.33263-0.42197-0.59572-0.3624c-0.27303,0.06453-0.43188,0.33759-0.37231,0.5957l1.31058,5.35646
	c0.0546,0.23331,0.26309,0.37726,0.48648,0.37726c0.03972,0,0.07445,0,0.11914-0.00992
	C200.24733,203.84723,200.40616,203.57416,200.34659,203.30611z M208.90498,238.32394l-7.42157-30.38618
	c-0.07446-0.27303-0.34253-0.43686-0.60565-0.36238c-0.27303,0.06451-0.43188,0.3326-0.37231,0.59569l7.4315,30.38622
	c0.06454,0.22838,0.26309,0.38226,0.4865,0.38226c0.03972,0,0.08438-0.00993,0.11913-0.01988
	C208.8156,238.85513,208.97447,238.58707,208.90498,238.32394z M208.90498,238.32394l-7.42157-30.38618
	c-0.07446-0.27303-0.34253-0.43686-0.60565-0.36238c-0.27303,0.06451-0.43188,0.3326-0.37231,0.59569l7.4315,30.38622
	c0.06454,0.22838,0.26309,0.38226,0.4865,0.38226c0.03972,0,0.08438-0.00993,0.11913-0.01988
	C208.8156,238.85513,208.97447,238.58707,208.90498,238.32394z M200.34659,203.30611l-1.31055-5.35643
	c-0.06453-0.26311-0.33263-0.42197-0.59572-0.3624c-0.27303,0.06453-0.43188,0.33759-0.37231,0.5957l1.31058,5.35646
	c0.0546,0.23331,0.26309,0.37726,0.48648,0.37726c0.03972,0,0.07445,0,0.11914-0.00992
	C200.24733,203.84723,200.40616,203.57416,200.34659,203.30611z M164.06287,232.43636
	c-0.28297-0.02483-0.50636,0.21843-0.50636,0.49146l-0.06454,4.37848c0,0.26808,0.21843,0.49641,0.49643,0.49641c0,0,0,0,0.00993,0
	c0.26807,0,0.4865-0.21841,0.49643-0.48648l0.0546-4.3735C164.54935,232.66472,164.33092,232.43636,164.06287,232.43636z
	 M164.06287,232.43636c-0.28297-0.02483-0.50636,0.21843-0.50636,0.49146l-0.06454,4.37848
	c0,0.26808,0.21843,0.49641,0.49643,0.49641c0,0,0,0,0.00993,0c0.26807,0,0.4865-0.21841,0.49643-0.48648l0.0546-4.3735
	C164.54935,232.66472,164.33092,232.43636,164.06287,232.43636z M200.34659,203.30611l-1.31055-5.35643
	c-0.06453-0.26311-0.33263-0.42197-0.59572-0.3624c-0.27303,0.06453-0.43188,0.33759-0.37231,0.5957l1.31058,5.35646
	c0.0546,0.23331,0.26309,0.37726,0.48648,0.37726c0.03972,0,0.07445,0,0.11914-0.00992
	C200.24733,203.84723,200.40616,203.57416,200.34659,203.30611z M208.90498,238.32394l-7.42157-30.38618
	c-0.07446-0.27303-0.34253-0.43686-0.60565-0.36238c-0.27303,0.06451-0.43188,0.3326-0.37231,0.59569l7.4315,30.38622
	c0.06454,0.22838,0.26309,0.38226,0.4865,0.38226c0.03972,0,0.08438-0.00993,0.11913-0.01988
	C208.8156,238.85513,208.97447,238.58707,208.90498,238.32394z M169.60295,40.66717
	c-0.08934,0.07447-0.19855,0.09929-0.29784,0.09929c-0.02979,0-0.05957,0-0.08936-0.00994
	c-0.1241-0.01984-0.2383-0.07941-0.31772-0.18864c-1.39992-1.90625-0.556-4.80043-0.52124-4.9295
	c0.0695-0.26309,0.35245-0.40707,0.61555-0.3326c0.08936,0.02481,0.16383,0.07941,0.2234,0.14395v0.95313
	c-0.10922,0.5709-0.23334,1.57369,0,2.502c0.09433,0.37729,0.24821,0.74464,0.48648,1.0673
	C169.86607,40.20053,169.82138,40.50334,169.60295,40.66717z M233.10573,0h-60.05757c-2.11478,0-3.8324,1.71761-3.8324,3.83239
	v20.75058c-2.00061,0.29291-3.90193,0.77442-5.68904,1.22619c-3.66364,0.92831-6.82585,1.73252-9.34274,0.58578
	c-0.25317-0.1092-0.54108,0-0.66025,0.25318c-0.11914,0.25318,0,0.54109,0.25317,0.66026
	c2.82468,1.28076,6.15073,0.4418,9.99306-0.53615c1.71268-0.43189,3.53952-0.89356,5.4458-1.1815
	c0.32762-0.04963,0.66023-0.09432,0.99286-0.12908c1.80202-0.21843,3.66855-0.25318,5.57982,0.04966
	c0.64534,0.09926,2.47716,0.59569,2.7899,0.71482c5.61458,2.08996,5.78831,6.94005,5.80322,7.16345
	c0,0.09926,0.02977,0.19855,0.08438,0.27303l1.39494,2.08002c0,0,0.45674,0.69498,0.53615,0.83399
	c0.834,1.4148,1.17157,3.02818,1.02264,4.60188c-0.02979,0.3326-0.08438,0.66519-0.15886,0.99285
	c-0.21843,0.97794-1.50912,3.12748-1.65805,3.30121l-2.10486,2.41262l-1.22617,1.40489
	c-0.11417-0.14892-0.23827-0.28794-0.36736-0.41204c-0.54608-0.52124-1.20137-0.82902-1.65807-0.99285h-1.03752
	c-0.04965,0.05957-0.08934,0.13404-0.10922,0.2234c-0.04964,0.26809,0.11914,0.53118,0.3922,0.58578
	c0,0,0.23331,0.05463,0.55103,0.18368c0.49146,0.19361,1.18646,0.5709,1.55878,1.20634
	c0.02483,0.03969,0.04466,0.07941,0.06451,0.11914c0.12907,0.26309,0.08441,1.84669-0.17871,2.40765
	c-1.55382,3.32606-6.6918,2.14953-6.7365,2.1396c-0.15388-0.03476-0.31769,0-0.43188,0.09929
	c-0.11914,0.08936-0.19362,0.23828-0.19362,0.3872l0.05464,7.04428l-10.17177,8.80165l-3.02821-6.83082l-0.00496-6.83579
	c0.64041,0.16383,1.3056,0.24324,1.9857,0.26312l6.70671,0.1638h0.00497l0.57089,0.01491c0,0,0,0,0.0099,0
	c0.18864,0,0.35745-0.09929,0.43686-0.25318c0.03973-0.06454,0.05957-0.14395,0.05957-0.2234
	c0.00995-0.24821-0.17374-0.46664-0.412-0.50634c-0.01988-0.00497-0.03973-0.00994-0.06454-0.00994l-0.96803-0.02481
	l-6.31949-0.16383c-2.85942-0.06454-5.43587-1.46446-7.05919-3.82248c-1.61835-2.3729-1.99564-5.27204-1.04745-7.93287
	l4.89972-12.12767c0.09929-0.25318-0.01491-0.55103-0.26805-0.65031c-0.26312-0.09929-0.55106,0.02979-0.66026,0.28297
	l-4.89972,12.13264c-1.06732,2.9984-0.65031,6.2202,1.15172,8.85621c1.22119,1.77721,2.92889,3.06294,4.88481,3.72816
	c-0.00993,0.03972-0.01488,0.06454-0.01488,0.1092l0.04466,5.24722c-0.02979-0.00991-0.0546-0.01985-0.08936-0.01985
	c-0.17374-0.01984-0.3475,0.06454-0.45174,0.20849c0,0-2.09492,2.56157-2.18428,2.56157h-33.16122l2.16441,4.44302
	c0.17374,0.37231,0.54111,0.28294,0.61556,0.25315c0.07944-0.01985,0.36735-0.14395,0.34253-0.46664
	c0-0.01984,0-0.03969-0.0099-0.0546c-0.15392-0.8886-0.75954-1.77225-1.81693-2.63105
	c-0.20352-0.1688-0.24325-0.48649-0.06951-0.69995c0.1688-0.20852,0.48652-0.24821,0.70495-0.06454
	c1.246,1.01767,1.97577,2.10484,2.15446,3.2317c0.10924,0.65032-0.18864,1.24603-0.76448,1.54391
	c-0.07448,0.03475-0.16383,0.06948-0.25318,0.09927c-0.15389,0.04469-0.31772,0.0695-0.47161,0.0695
	c-0.15886,0-0.32265-0.02482-0.47655-0.07941c-0.36241-0.12411-0.6702-0.38723-0.85884-0.77442l-6.00176-11.81989h11.76032
	c2.85938,0,5.18268-2.32327,5.18268-5.18268c0-2.85942-2.3233-5.18269-5.18268-5.18269h-17.01749l-3.99622-7.86836h12.27162
	c2.04033,0,3.69838-1.4694,3.69838-3.27143v-3.86718c2.64099-0.64535,4.60684-3.03315,4.60684-5.86772
	c0-2.8346-1.96585-5.21744-4.60684-5.86279V8.80161c0-1.80203-1.65805-3.27143-3.69838-3.27143h-87.0929
	c-2.0403,0-3.69835,1.4694-3.69835,3.27143v19.87193c-0.30778,0.07941-0.61062,0.17374-0.91344,0.28294
	c-5.24225,1.88147-7.99244,7.63009-6.13084,12.81771c0.89853,2.51191,2.73528,4.52246,5.17275,5.65429
	c1.35026,0.63047,2.79985,0.94819,4.25934,0.94819c1.15665,0,2.32327-0.19858,3.44519-0.60069
	c3.52958-1.26588,5.93226-4.28912,6.5528-7.7095h60.02779l1.04745,2.04527l-6.92514,3.5048
	c-0.96804,0.48152-1.62827,1.33042-1.91123,2.29348H85.00212c-2.85445,0-5.18268,2.32327-5.18268,5.18268
	c0,2.85939,2.32823,5.18269,5.18268,5.18269c0,0,15.06651-0.01491,15.27006-0.03972l8.70729,17.40965
	c2.61617,5.25216,7.88821,8.51865,13.75597,8.55837l10.17672,0.0546l7.57545,20.53712
	c0.34254,0.92335,1.22617,1.53397,2.20413,1.53397h1.06233l0.03972,9.17393l-1.12192,1.92117
	c-1.01767,1.74246-1.04745,3.85724-0.07942,5.64436c0.80421,1.48928,2.18425,2.50201,3.79269,2.80979
	c-1.16661,1.28075-1.82686,2.96861-1.85168,4.74086l-0.02481,10.65823h-24.29507c0.46664-0.47655,0.75458-1.13184,0.75458-1.85165
	h3.76288c1.3056,0,2.50697-0.71486,3.13741-1.85165l13.33401-24.49863c0.40704-0.72476,0.39217-1.5836-0.02979-2.30339
	c-0.43192-0.71485-1.17656-1.14677-2.01054-1.14677H98.39071c-1.30557,0-2.50198,0.71485-3.12748,1.86656l-7.73926,14.19282
	l-24.21068,0.24821l0.12411-22.78594c0.00497-2.88921-1.64814-5.29685-4.32388-6.2897
	c-1.52403-0.56097-3.10266-0.57584-4.51249-0.10426l1.08717-1.25097l2.05024-0.21346
	c4.04585-0.41701,7.11873-3.79269,7.15348-7.85842v-0.17871c0.36735,0.09927,0.75458,0.14893,1.15668,0.14893
	c2.80479,0,5.0834-2.63602,5.0834-5.87769c0-3.08775-2.07009-5.62448-4.68626-5.85782v-1.09711
	c0-7.45132-6.0663-13.51766-13.52262-13.51766h-1.75734c-3.81257,0-7.28258,1.45452-9.90866,3.83242
	c-0.02481,0.08935-0.07944,0.16876-0.15886,0.2333c-0.04963,0.04964-5.40608,4.4728-4.56712,13.17513
	c0.47658,5.01888,3.24664,8.39458,4.5274,9.70515c0.57587,0.57087,1.1964,1.09708,1.87154,1.57365l-2.73531,3.14732
	c0.42198-1.1368,0.66522-2.29348,0.72479-3.46504c-0.18368-0.16383-0.52621-0.48151-0.94819-0.95312
	c-1.47437-1.61338-3.9565-5.00398-4.43307-9.91857c-0.67513-7.07407,2.42753-11.42276,4.03594-13.16521
	c0.32269-0.3475,0.58578-0.59075,0.74464-0.72977c-1.05242-2.24382-3.32606-3.79763-5.96207-3.79763
	c-6.08618,0-11.04547,4.95432-11.04547,11.0405v18.34293c0,5.39615-1.65804,10.5838-4.79049,14.97715
	c-0.09929,0.15389-0.11914,0.3475-0.03475,0.51134c0.08438,0.15883,0.25318,0.25812,0.43686,0.25812
	c2.34808,0,4.87984-0.46167,7.36694-1.31057L3.78195,149.71199l-2.38284,5.13803c-2.17932,4.7061-1.79709,10.11218,1.03751,14.46584
	c2.20413,3.37073,5.56494,5.65924,9.39236,6.46344H7.16757c-1.39992,0-2.53676,1.13684-2.53676,2.53676v4.99898
	c0,1.30067,0.99285,2.3779,2.2637,2.51689l-1.97079,63.47792c-0.00497,0.13405,0.04963,0.26312,0.13898,0.35745
	c0.09432,0.09929,0.2234,0.15388,0.35744,0.15388h4.96922c0.25812,0,0.47161-0.19858,0.49643-0.45177l1.17653-12.64891h21.61932
	l1.17653,12.64891c0.01984,0.25319,0.23827,0.45177,0.49146,0.45177l8.89597-0.07944c0.27303,0,0.49643-0.22337,0.49643-0.49643
	v-23.25752l15.88562-0.0695c1.51409-0.00992,2.75019-1.25098,2.75019-2.77003c0-2.82466-2.30342-5.12808-5.12312-5.12808h-1.529
	c-1.02761,0-1.99561-0.44681-2.67077-1.2262l-4.79049-5.55501l8.26053-21.49025l1.60841,6.77126l-0.99285,2.95868
	c-0.66026,2.00061-0.65528,4.19977,0.01985,6.20038l2.05024,6.02165c0.06951,0.20352,0.25815,0.33755,0.47658,0.3326
	l4.13026-0.09929c0.13898,0,0.26806-0.05957,0.35741-0.16881c0.09432-0.09926,0.13404-0.23827,0.11913-0.37726
	c-0.02481-0.22836-0.01984-0.88365,0.3326-1.17653c0.29787-0.25815,0.82409-0.17873,1.21626-0.06453
	c2.22894,0.62053,2.97358,1.66798,2.98352,1.66798c0.0695,0.1241,0.20355,0.20352,0.34254,0.21843l16.38204,1.93604
	c0.11913,0.00497,0.23333,0.01988,0.3475,0.01988c0.79427,0,1.5389-0.32269,2.08993-0.91344
	c0.6255-0.67514,0.89856-1.57863,0.72977-2.49203c-0.31275-1.7077-1.28079-3.20195-2.71547-4.19978
	c-2.10484-1.4744-4.99898-3.98134-5.80318-4.91959l-3.71825-4.31888l-7.28255-35.05757h49.51348l20.00595,14.61971v60.89157
	c-3.38066,0.82407-5.77341,2.37787-7.14851,4.63661c-2.08499,3.44025-0.98291,7.20312-0.93825,7.35703
	c0.06453,0.20851,0.25317,0.35248,0.47658,0.35248c6.5826,0.04465,36.26884,0.08934,37.17235,0.01488c0.0099,0,0.0099,0,0.0099,0
	h0.01491c0.0546,0,0.08936-0.00494,0.11914-0.01488c0.01491,0,0.02481,0,0.03474-0.00995
	c0.06454-0.01984,0.12907-0.0546,0.17374-0.09929c0.03476-0.02481,0.05957-0.0645,0.08936-0.09926
	c0.00993-0.01988,0.02484-0.04469,0.03476-0.06454c0.02979-0.0695,0.04469-0.13403,0.04469-0.20851l-0.17871-70.84488
	l15.10126,55.62448c-1.97577,2.25873-2.5417,5.48053-1.45949,8.29031l2.41759,6.24504c0,0.0099,0.00993,0.0099,0.00993,0.01985
	c0.0099,0.01488,0.01985,0.04466,0.03476,0.06453c0.0099,0.01488,0.02979,0.03476,0.03969,0.04964
	c0.04469,0.0546,0.09929,0.09929,0.16879,0.12907c0.01985,0.01985,0.03476,0.01985,0.06454,0.02481
	c0.04466,0.01988,0.09929,0.02979,0.14395,0.02979l26.91124,0.23334c0.03969,0,0.07445-0.00993,0.09929-0.01988
	c0.03969,0,0.06451-0.00493,0.09926-0.02481c0.17377-0.07445,0.29788-0.24324,0.29788-0.45174c0-0.00993,0-0.00993,0-0.00993
	v-0.02481l-0.36736-5.29192c-0.33263-4.6515-1.05739-9.29805-2.14954-13.83041L186.6651,127.46716
	c-0.32266-1.35523-1.43465-2.39275-2.77003-2.64593l-3.35583-0.63047c-1.79706-0.20849-3.71329-1.55381-5.18269-2.67574
	c-0.29787-0.2234-18.78972-16.17849-18.78972-16.17849h-13.87508c-0.56096,0-1.07726-0.35744-1.2659-0.88366l-9.34271-25.33257
	c-0.01987-0.05463,0-0.10923,0.01488-0.12908c0.01985-0.02481,0.05461-0.05956,0.10924-0.05956l21.6243,0.02481
	c0.56093,0,1.06729,0.36238,1.26587,0.88362l1.40486,3.83739c-0.07941-0.00994-0.62053-0.0546-0.81908-0.02482l-1.22122-3.29627
	c-0.15886-0.46167-0.60562-0.75954-1.09213-0.76945l-19.66342-0.01491c-0.26805,0-0.49641,0.2234-0.49641,0.49643
	c0,0.26806,0.22836,0.49642,0.49641,0.49642l19.66342,0.01491c0.07446,0,0.13901,0.0546,0.16382,0.11914l1.21625,3.29627
	c-0.50139,0.31769-0.89355,0.82902-1.03754,1.45452c-0.07942,0.30779-0.05957,0.63044,0.05463,0.91837
	c-0.80917,0.22837-1.47937,0.87868-1.68785,1.74246c-0.08936,0.33756-0.04469,0.68507,0.08934,1.0127
	c-0.77441,0.2234-1.40489,0.86874-1.60344,1.7077c-0.09929,0.41205-0.03972,0.8489,0.19855,1.20138
	c-0.66022,0.2879-1.17651,0.87368-1.35522,1.61338c-0.10921,0.42692-0.01985,0.88362,0.22339,1.25594
	c0.25319,0.36735,0.64038,0.61556,1.07724,0.66522c0.01491,0.0099,2.00061,0.34747,3.32109,1.0673
	c0.23334,0.12907,0.68507,0.38722,0.68507,0.38722s-0.01488,0.19855-0.01488,0.2879c0.11417,3.01828,1.3701,5.90748,3.48488,8.02723
	h-0.06453c0,0,17.5685,15.18564,17.84154,15.38422c0.60068,0.46168,1.33537,0.9581,2.01051,1.38999
	c1.31056,0.83398,2.81972,1.27581,4.36856,1.26588l1.55382-0.00991c3.91678-0.86381,7.0145-3.90687,7.88324-7.9875l5.36139-25.32764
	c1.26588-5.97695-0.16879-12.15746-3.92674-16.97279c-3.70828-4.75573-9.28316-7.63006-15.29486-7.90805
	c0,0-2.71544-3.20689-2.74522-3.23174l-0.01491-2.07506h57.94777c2.11475,0,3.8324-1.71761,3.8324-3.83239V3.83239
	C236.93813,1.71761,235.22047,0,233.10573,0z M126.10616,22.22495c2.08997,0.62053,3.61398,2.55163,3.61398,4.83521
	c0,2.28851-1.52402,4.21962-3.61398,4.84015c-0.31772,0.09432-0.65032,0.15883-0.99285,0.18864
	c-0.14395,0.01488-54.53233,0.01984-54.53233,0.01984c-2.78001,0-5.0437-2.2637-5.0437-5.04864c0-2.78,2.26369-5.0437,5.0437-5.0437
	c0,0,54.38838,0.00497,54.53233,0.01988C125.45583,22.06612,125.78844,22.13063,126.10616,22.22495z M43.13855,39.07364
	c-0.02979,0.33263-0.07941,0.66522-0.14395,0.99285c-0.6106,3.00834-2.75516,5.64933-5.87769,6.77125
	c-2.29348,0.82408-4.7607,0.71486-6.95493-0.30778c-2.19419-1.02264-3.8473-2.82963-4.65644-5.09333
	c-1.67792-4.67135,0.80421-9.84907,5.53513-11.54686c0.19361-0.06948,0.38226-0.12905,0.57587-0.18368
	c0.3326-0.09926,0.66022-0.17374,0.99285-0.22834c0.5113-0.08935,1.01767-0.12908,1.524-0.12908
	c3.71825,0,7.20314,2.28355,8.51371,5.9422C43.09389,36.54188,43.24778,37.82763,43.13855,39.07364z M103.22095,36.53194
	c-0.26312,0.71486-0.21843,1.50916,0.12411,2.19423l0.1787,0.34747H44.13637c0.10426-1.3602-0.06454-2.75516-0.55103-4.11536
	c-1.6382-4.56215-6.30958-7.19817-10.97596-6.48332V8.80161c0-1.25594,1.21622-2.27858,2.7055-2.27858h87.0929
	c1.49425,0,2.70553,1.02264,2.70553,2.27858v12.24187c-0.14395-0.01491-54.53233-0.01988-54.53233-0.01988
	c-3.33103,0-6.03655,2.71049-6.03655,6.03655c0,3.331,2.70552,6.04149,6.03655,6.04149c0,0,54.38838-0.00497,54.53233-0.01984
	v3.71325c0,1.25594-1.21128,2.27858-2.70553,2.27858h-12.77798l-1.43468-2.8296c-0.3177-0.61559-0.8439-1.08223-1.48431-1.32051
	c-0.64037-0.2333-1.34529-0.2234-1.96582,0.03972C104.04003,35.25118,103.47906,35.82205,103.22095,36.53194z M104.22868,38.2744
	c-0.21346-0.44183-0.25318-0.93825-0.06947-1.39993c0.15883-0.45173,0.50633-0.80421,0.95312-0.99285
	c0.40707-0.15886,0.84887-0.16877,1.25594-0.01488c0.40707,0.14395,0.73967,0.44183,0.93825,0.82902l2.91898,5.7238
	l-2.97855,1.56869L104.22868,38.2744z M97.29859,47.91003c0.24325-0.59075,0.69498-1.10208,1.3056-1.40986l6.93505-3.50973
	l0.81911,1.45949l-0.52127,0.28297c-0.88362,0.4567-1.36517,1.38998-1.28075,2.32824l-0.74961-1.45452
	c-0.12907-0.24324-0.45176-0.3326-0.69501-0.20849c-0.11913,0.06451-0.20849,0.17374-0.25318,0.28791
	c-0.03472,0.12907-0.01984,0.27303,0.03475,0.38226c0,0,1.12193,2.16441,1.16662,2.22895c0.08936,0.28794,0.08936,0.59572,0,0.89356
	c-0.07944,0.24324-0.21843,0.45673-0.4021,0.62053c-0.09432,0.08935-0.20355,0.1688-0.32269,0.22837
	c-0.20849,0.1092-0.43188,0.16383-0.66519,0.15886c-0.14398,0-0.29787-0.01987-0.44679-0.06951
	c-0.36736-0.11914-0.66522-0.36735-0.83896-0.71485l-0.08936-0.17374l-0.63544-1.23116l-0.32266-0.62547
	c-0.12411-0.24327-0.45177-0.31275-0.69501-0.19858c-0.12411,0.06454-0.20352,0.17374-0.24324,0.28793
	c-0.04469,0.13898-0.03476,0.27303,0.02978,0.39217l0.02482,0.04469l0.52124,1.00773l0.5014,0.96804
	c0.36735,0.71485,0.07944,1.58857-0.63541,1.96088c-0.34254,0.17871-0.72977,0.20849-1.10706,0.08936
	c-0.36238-0.11914-0.67016-0.38226-0.83896-0.72479c-0.02979-0.03476-0.04963-0.05957-0.07445-0.09929
	c-0.00993,0-0.44183-0.88362-0.44183-0.88362c-0.21842-0.42198-0.31274-0.87868-0.29784-1.32545
	C97.09007,48.56035,97.16455,48.22279,97.29859,47.91003z M85.00212,57.28255c-2.30839,0-4.18983-1.8765-4.18983-4.18983
	c0-2.30839,1.88144-4.18983,4.18983-4.18983h11.09016c-0.01491,0.59568,0.11417,1.20631,0.4021,1.77718l3.30122,6.59752
	C99.75094,57.28255,85.00212,57.28255,85.00212,57.28255z M106.7108,65.16082c-0.06947,0.03472-0.15388,0.0546-0.2234,0.0546
	c-0.1787,0-0.36238-0.0993-0.4418-0.26809l-2.42255-4.77065l0.88859-0.44183l2.41759,4.76073
	C107.05334,64.73884,106.95405,65.03671,106.7108,65.16082z M108.4086,64.32186c-0.0596,0.03475-0.14398,0.0546-0.2234,0.0546
	c-0.17377,0-0.35247-0.09929-0.44183-0.27303l-2.4325-4.7657l0.89853-0.45174l2.42753,4.76567
	C108.75114,63.90485,108.66175,64.20269,108.4086,64.32186z M110.2255,63.51765c-0.07447,0.03472-0.15388,0.0546-0.22836,0.0546
	c-0.1787,0-0.35741-0.09929-0.4418-0.278c0,0-2.1545-4.25437-2.43747-4.79549l-0.01488-0.04466l-0.00993-0.01988l0.87371-0.43189
	c0.01984,0.01988,2.47219,4.85009,2.47219,4.85009C110.56804,63.09567,110.46875,63.39355,110.2255,63.51765z M102.16356,59.7994
	l-3.42535-6.8457c0.14892,0.02979,0.2929,0.04469,0.44679,0.04469c0.37729,0,0.76449-0.08938,1.11696-0.26809
	c0.58081-0.30778,1.0127-0.81414,1.21128-1.43468c0.03475-0.11914,0.06454-0.23827,0.07941-0.35244
	c0.53615,0.26309,1.15668,0.3326,1.74245,0.15389c0.15886-0.03475,0.31275-0.09432,0.46168-0.17377
	c0.14892-0.07941,0.2929-0.16877,0.42197-0.278c0.36736-0.29784,0.64038-0.69498,0.7893-1.14674
	c0.02482-0.09926,0.0546-0.20849,0.06951-0.30778c0.5709,0.26312,1.23609,0.30778,1.8616,0.07944
	c0.25318,0,0.49642-0.03475,0.73967-0.10426c-0.5709,1.03257-0.98292,2.42256-0.49146,3.99622
	c0.09432,0.31275,0.22836,0.63047,0.4021,0.9581c0.08936,0.16383,0.26309,0.26312,0.43189,0.26312
	c0.07941,0,0.16383-0.01984,0.23333-0.06454c0.02979-0.01488,0.05957-0.03475,0.08439-0.05957
	c0.1787-0.14395,0.23827-0.4021,0.12411-0.61556c-0.1142-0.21346-0.2085-0.42692-0.278-0.63544
	c-0.47658-1.34035-0.12411-2.53176,0.37729-3.40547c0.51627-0.91838,1.18643-1.48928,1.246-1.53891
	c0.18864-0.16383,0.23334-0.45176,0.08939-0.66025c-0.14399-0.21843-0.42198-0.278-0.65032-0.16383l-1.62332,0.86874
	c-0.34253,0.18864-0.73967,0.2234-1.11198,0.09929c-0.36735-0.11914-0.66522-0.38723-0.82906-0.7347
	c-0.3326-0.69501-0.0546-1.50418,0.61559-1.85662l4.37845-2.30342l4.95435,9.73986L102.16356,59.7994z M117.71658,59.73486
	c-0.0596,0.04469-0.14399,0.05463-0.21349,0.05463c-0.18368,0-0.36238-0.09929-0.4418-0.26312c0,0-2.45731-4.83021-2.45731-4.84512
	l0.87372-0.43686c0.0099,0.00497,2.46722,4.82527,2.46722,4.82527C118.05911,59.31291,117.96973,59.61076,117.71658,59.73486z
	 M114.63377,48.9277h16.51609c2.30836,0,4.18983,1.88144,4.18983,4.18983c0,2.31333-1.88147,4.18983-4.18983,4.18983h-12.26172
	L114.63377,48.9277z M96.12207,111.95387c0.4567-0.83399,1.32048-1.35026,2.26864-1.35026h40.77143
	c0.48155,0,0.91841,0.25318,1.17159,0.66025c0.24324,0.42693,0.24821,0.92335,0.01985,1.35027l-13.34393,24.49365
	c-0.4567,0.82405-1.32545,1.34035-2.27861,1.34035c0,0-40.98983-0.00993-41.09409-0.02982
	c-0.34254-0.09428-0.64535-0.31271-0.83896-0.63043c-0.24325-0.41701-0.25318-0.91841-0.02482-1.34036L96.12207,111.95387z
	 M83.31426,131.71657c-0.09432,0.2383-0.33756,0.41203-0.61556,0.41701c-0.07444-0.05957-0.15388-0.10919-0.2333-0.15886
	l-5.62451-2.68565c-0.07448-0.02979-0.15389-0.04468-0.22837-0.03972l-3.34093,0.10921
	c-0.27799,0.00496-0.48648,0.22836-0.47658,0.50636c0.00994,0.26808,0.2383,0.49146,0.5014,0.4716l3.22677-0.11417l5.5004,2.62608
	c0.30281,0.17374,0.43685,0.54111,0.30281,0.86874c-0.07941,0.18367-0.21843,0.31274-0.40211,0.38722
	c-0.1787,0.05957-0.38226,0.0546-0.55599-0.03972c-0.0695-0.03972-6.04149-2.84947-6.04149-2.84947
	c-0.07448-0.03476-0.15389-0.04469-0.22837-0.04469l-3.35087,0.10922c-0.26309,0.0099-0.47655,0.23331-0.46664,0.50633
	c0.00497,0.2681,0.2383,0.48155,0.5014,0.47162l3.22677-0.10921l5.49543,2.62608c0.30779,0.16876,0.43686,0.54109,0.30779,0.85881
	c-0.07941,0.18367-0.21843,0.31772-0.40211,0.38722c-0.18367,0.0695-0.38226,0.0546-0.55599-0.02979l-5.71387-2.71049
	c-0.06454-0.03476-0.14892-0.0546-0.2234-0.04964l-3.3459,0.11418c-0.27303,0.00496-0.48151,0.23827-0.47161,0.50139
	c0.00994,0.27303,0.2383,0.48152,0.50636,0.4716l3.22677-0.10922l4.01112,1.88641c0.31275,0.17377,0.4418,0.54111,0.31275,0.86874
	c-0.07448,0.18367-0.21843,0.31274-0.4021,0.38722c-0.18864,0.05957-3.65868-1.25101-3.65868-1.25101
	c-0.07445-0.01984-0.15389-0.03972-0.22337-0.02481l-3.02821,0.29785c-0.12907,0.01491-0.23827,0.07446-0.32762,0.17377
	c-0.00497,0.0099-1.16165,1.3056-3.83242,1.87149h-5.20253l-0.01488-3.02321h1.28076c0.27303,0,0.49146-0.21843,0.49146-0.49146
	l0.07447-6.17554l14.74881-0.1241l4.95432,2.23888C83.31924,131.01662,83.45328,131.38895,83.31426,131.71657z M83.64192,132.80374
	l-0.29787,0.55603c0-0.12909-0.01984-0.24821-0.04963-0.35745C83.41853,132.94772,83.53767,132.88318,83.64192,132.80374z
	 M81.56687,139.38635v0.04965c0,0.89853-0.71486,1.6382-1.60841,1.68286c0,0-26.09216-0.05957-26.30065-0.14395H53.6479
	c-0.58084-0.26309-0.99782-0.85881-0.99782-1.54884v-0.03972H81.56687z M69.59309,138.4183
	c0.80421-0.43188,1.30064-0.86874,1.52897-1.08714l2.73034-0.27802l2.91898,1.13683c0.41204,0.2085,0.88863,0.22833,1.32051,0.07445
	c0.43189-0.15883,0.7893-0.50136,0.96307-0.93326c0.07941-0.19858,0.11914-0.39716,0.12411-0.5957l0.22834,0.11417
	c0.2383,0.1241,0.50139,0.18864,0.76945,0.18864c0.18864,0,0.38723-0.02979,0.57091-0.09433
	c0.43685-0.16879,0.79427-0.50636,0.96307-0.93327c0.12907-0.29785,0.15388-0.60564,0.10923-0.89853
	c0.14892-0.00995,0.29784-0.03973,0.4418-0.09433c0.07944-0.03474,0.16383-0.07448,0.24324-0.11417l-0.58578,1.07227
	c-0.39713,0.73473-0.3872,1.59851,0.03972,2.3084c0.02482,0.04466,0.04964,0.09431,0.08439,0.134H69.59309z M82.54482,139.436
	v-0.04965h37.44537v0.03972c0,0.93329-0.75951,1.69279-1.6928,1.69279H81.94415
	C82.32141,140.6572,82.54482,140.07639,82.54482,139.436z M86.98782,126.6729l-2.65092,4.86
	c0.03973-0.62054-0.2879-1.2361-0.89355-1.55382l-5.07843-2.31333c-0.06454-0.02979-0.14395-0.0546-0.20354-0.03973L61.16873,127.77
	c0.05957-0.27306,0.11417-0.54111,0.15389-0.81414L86.98782,126.6729z M58.76605,97.77596
	c1.79209,0.65529,3.70331,2.41265,3.69341,5.36142l-0.11917,22.8157l-0.87368,0.01987
	c0.4418-3.67356-0.14398-7.42654-1.73255-10.79725l-0.62053-1.21128c0.00994-0.03973,0.04966-4.15508,0.04966-4.15508
	c0-0.26809-0.21843-0.48652-0.48155-0.49642h-0.00497c-0.27303,0-0.48152,0.21843-0.49146,0.48649l-0.01985,2.32823
	l-6.29467-12.24187c0,0,0.52124-0.49146,0.58081-0.56097C53.9805,97.53271,56.46262,96.91714,58.76605,97.77596z M64.97137,76.79704
	c0.30778-0.10923,0.64038-0.16879,0.98291-0.17873h0.09432c2.2637,0,4.10545,2.19916,4.10545,4.90469
	s-1.84175,4.90469-4.10545,4.90469c-0.4021,0-0.78933-0.0695-1.15171-0.19361c-0.34254-0.11417-0.66522-0.29288-0.973-0.51131
	c-1.19637-0.85387-1.99561-2.42255-1.99561-4.19977c0-1.807,0.82902-3.39056,2.05518-4.23946
	C64.29124,77.06509,64.6189,76.90127,64.97137,76.79704z M50.95228,77.85937c0.87371-0.76449,1.99067-1.19141,3.14735-1.21128
	h0.07941c0.25815,0,0.50139,0.01987,0.74961,0.05463c1.03754,0.1638,1.97579,0.65032,2.69065,1.35523
	c0.88362,0.87372,1.43962,2.07506,1.46443,3.42038c0.03972,2.7055-2.12965,4.9295-4.82524,4.97913
	c-1.20134,0.01987-2.39278-0.41204-3.30621-1.21128c-1.03751-0.91341-1.64811-2.23391-1.67295-3.61893
	c-0.01984-1.39993,0.556-2.74028,1.58857-3.69341C50.89272,77.91399,50.92747,77.87924,50.95228,77.85937z M43.94276,89.89272
	c0.03972-0.02482,0.08442-0.06451,0.11914-0.1092c0.15392-0.20849,0.1142-0.51133-0.07941-0.6801
	c-0.03475-0.01984-0.07447-0.04963-0.11417-0.06951c-1.10208-0.7347-2.08002-1.60344-2.92892-2.58636
	c-0.3475-0.39219-0.67016-0.81911-0.96804-1.24603c-0.01488-0.01987-0.02979-0.03475-0.03475-0.05463
	c0.25815,0.2383,0.54111,0.45177,0.85387,0.62053c0.65528,0.37232,1.56376,0.48155,2.37787,0.48155
	c0.27303,0,0.48652-0.2234,0.48652-0.48649c0-0.27306-0.21349-0.49149-0.48652-0.49149c-0.83896,0-1.61338-0.28791-2.21901-0.77937
	c-0.41204-0.32765-0.74961-0.7397-0.97797-1.21625c-0.24821-0.47658-0.37729-1.01766-0.37729-1.57369
	c0-0.5659,0.12908-1.10205,0.37729-1.58853c0.22837-0.46664,0.56593-0.88365,0.97797-1.21626
	c0.60563-0.48154,1.38005-0.77939,2.21901-0.77939l4.59193,0.01984c0.56097,0,1.1269-0.02481,1.69283-0.07941
	c-0.75954,1.03258-1.17159,2.29349-1.15171,3.58418c0.03475,1.65807,0.75951,3.24167,2.01052,4.34372
	c1.07227,0.93328,2.44738,1.44462,3.86715,1.44462h0.09432c3.21189-0.0546,5.78337-2.68071,5.78337-5.88266v-0.08936
	c-0.01984-1.5687-0.65528-3.03812-1.78218-4.1253c-0.57584-0.55599-1.246-0.98788-1.97079-1.26588
	c1.43468-0.7347,2.77007-1.65804,3.97638-2.76509l1.92116-1.75237v0.01985l0.87868,1.02264
	c0.52621,1.12689,0.82405,2.33321,0.89853,3.56433c-1.77721,0.90846-3.02325,2.97358-3.02325,5.36636
	c0,2.36299,1.21625,4.40329,2.96365,5.33658l-0.00494,0.56096c-0.02979,3.56433-2.73034,6.53297-6.27483,6.9053l-2.19916,0.22337
	h-0.00497l-5.89754,0.06454c-0.27303,0.00994-0.48152,0.22837-0.48152,0.49643c0,0.26809,0.2184,0.48652,0.48152,0.48652
	c0.00497,0,0.00497,0,0.00497,0l4.82027-0.05463l-5.51528,6.3344c-0.17374,0.19859-0.15389,0.51133,0.04966,0.69004
	c0.08935,0.07448,0.20352,0.11417,0.31769,0.11417c0.13902,0,0.26809-0.04963,0.36738-0.1638l1.60345-1.83678l3.86217,7.51589
	l-12.61913,0.03472l0.03972-7.77401c0.00497-2.56651-1.25597-4.44302-2.89417-5.54507L43.94276,89.89272z M3.25077,168.77971
	c-2.64596-4.06075-3.00834-9.11932-0.96307-13.52263l2.3729-5.12311l26.01768-52.25375
	c1.48927-2.99343,4.39335-3.48986,6.42375-3.00834c0.22834,0.0546,0.46167,0.12907,0.69995,0.21843
	c0.31772,0.11417,0.6255,0.25815,0.93825,0.44679c1.47934,0.8588,2.75516,2.45234,2.75019,4.90962l-0.13898,27.49702
	l-5.91738,0.05956c-0.13404,0-0.19859-0.09432-0.2234-0.13404c-0.01987-0.0397-0.0546-0.13402,0-0.23331
	c0.71983-1.17653,2.02046-1.41977,3.88699-0.72479c0.24821,0.09432,0.53615-0.03475,0.6255-0.29288
	c0.09432-0.24821-0.02979-0.52621-0.28791-0.6255c-3.10266-1.14674-4.49761,0.21843-5.05364,1.1368
	c-0.2333,0.38226-0.23827,0.83896-0.01984,1.23115c0.21843,0.38223,0.63047,0.62054,1.0723,0.62054c0.00494,0,0.00494,0,0.01488,0
	l26.88145-0.24329l-0.06454,5.68408l-9.14912,0.02483c-0.27306,0.00993-0.49149,0.22836-0.49149,0.49641
	c0,0.2681,0.21843,0.48155,0.49149,0.48155c0,0,0,0,0.00494,0l7.36697-0.02481l0.00994,3.01823h-8.335
	c-0.27303,0-0.49146,0.2135-0.49146,0.48155v0.52621c0,0.58577,0.19361,1.12689,0.5163,1.56375l-12.76311,0.1638
	c-2.77997,0.03474-5.3862-1.02264-7.35703-2.98846c-1.9708-1.96585-3.03315-4.56712-3.01331-7.35207l0.1688-19.22161
	c0-0.26806-0.20852-0.49146-0.48652-0.49146c-0.278-0.01984-0.48649,0.21346-0.48649,0.48152l-0.16877,19.22161
	c-0.03475,3.04309,1.14177,5.90747,3.29624,8.05698c0.46664,0.46167,0.9581,0.87868,1.48431,1.2361
	c-0.00494,0.00993,0.04966,34.70015,0.04966,34.70015l-17.67277,0.3326C10.37943,175.22827,5.90167,172.84544,3.25077,168.77971z
	 M9.93761,248.82834H5.93145l1.95592-62.98151h7.91302L9.93761,248.82834z M29.84429,219.64349l2.04527,6.01666
	c0.07445,0.20352,0.26309,0.31769,0.47655,0.33757l0.31772-0.00993l0.59075,6.37906H12.4694l4.32882-46.52002h12.14755
	l2.19916,23.61993v0.00493l-1.32545,3.96648C29.15922,215.44371,29.16419,217.64288,29.84429,219.64349z M12.15665,235.72766
	l0.21843-2.36797h20.98886l0.21843,2.36797H12.15665z M36.09427,248.82834H35.8014l-5.86278-62.98151h6.15566V248.82834z
	 M36.09427,184.83907l-28.92669,0.01491c-0.85387,0-1.54391-0.69003-1.54391-1.53894v-4.99898
	c0-0.85387,0.69004-1.5439,1.54391-1.5439h28.92669V184.83907z M43.74917,248.74889h-6.66205v-95.91435h6.66205V248.74889z
	 M33.82066,151.64807v-9.37749h118.03508v9.37749H33.82066z M44.73706,171.71358l0.00497-0.01985l0.93822-2.81969
	c0.08935-0.25319-0.05957-0.53117-0.30779-0.61557c-0.25812-0.08934-0.53612,0.04964-0.61556,0.30779l-0.01488-6.47835h6.24004
	l1.0177,4.31888l-7.25774,5.30679H44.73706z M52.8536,165.78131l-0.87371-3.69341h5.92732L52.8536,165.78131z M59.59507,162.08791
	h3.748l-18.60105,13.59708v-2.74025L59.59507,162.08791z M50.55018,214.21753l2.75519,3.20692
	c0.13898,0.16879,0.29287,0.31274,0.45173,0.44679c-1.54884,0.13898-3.20195,0.0099-4.49761-0.3475L50.55018,214.21753z
	 M57.12782,188.06584L45.81926,217.0571c-0.36238-0.0546-0.72479-0.11914-1.07724-0.18864v-39.95232l8.31016-6.07625
	l4.07563,17.22098V188.06584z M78.51384,199.84604l1.94104,2.25375c0.29784,0.3475,0.86378,0.89355,1.54884,1.50912
	c-1.85666,0.44183-3.86717,0.52127-5.99186,0.22836L78.51384,199.84604z M76.50332,197.26462l-3.92177,5.82803
	c-6.37409-1.89139-11.666-6.12592-12.50993-6.82089l-6.1656-26.0524l11.11994-8.13145h4.17493L76.50332,197.26462z
	 M44.78669,161.09506v-8.26053h94.8024v8.26053H44.78669z M139.71814,175.47649l-18.32306-13.38858h3.74801l14.57505,10.65327
	V175.47649z M139.71814,171.51006l-12.88719-9.42215h12.88719V171.51006z M147.37303,248.74889h-6.66205v-95.91435h6.66205
	V248.74889z M158.68657,126.06727h2.07008v9.1094c-1.17653-0.23334-2.07008-1.27084-2.07008-2.51688V126.06727z M147.7106,125.97789
	l9.98311-0.06451v6.74641c0,1.80202,1.35524,3.31114,3.10764,3.52957l0.03474,8.83641
	c0.00992,0.27303,0.22835,0.48648,0.49643,0.48648c0.0099,0,0.0099,0,0.0099,0c0.27307,0,0.49643-0.21346,0.49643-0.49643
	l-0.07941-19.12729l14.81334-0.09432c0,0.19859,2.80977,11.32346,2.80977,11.32346c0.55101,2.16444,2.42752,3.70831,4.63165,3.86221
	l12.76308,52.19418c0.05463,0.22833,0.26312,0.37729,0.48155,0.37729c0.04466,0,0.07941,0,0.11417-0.00497
	c0.27303-0.07448,0.43686-0.33755,0.37231-0.60565l-12.85739-52.55656c-0.05464-0.2234-0.25319-0.38719-0.47659-0.38719h-0.02977
	c-1.90132,0-3.56433-1.28079-4.03595-3.13245l-2.81473-11.01569c-0.00993-0.01491-0.01987-0.04469-0.02481-0.05957l5.85782-0.03973
	c1.11696,0.06454,2.07506,0.86874,2.33813,1.95095l24.35962,102.20906c1.09213,4.47774,1.80202,9.07465,2.12968,13.66161
	l0.24324,3.51968c-2.24883-2.90408-8.08183-9.04489-17.09193-9.04489h-0.00993c-3.79767,0-6.57268,1.05739-8.21584,3.14238
	c-1.08221,1.37013-1.50418,2.95871-1.63326,4.32387l-1.2907-3.34096c-0.98293-2.54663-0.41702-5.4706,1.45451-7.44638
	c0.11914-0.12904,0.16383-0.30779,0.10924-0.48152l-22.57249-85.43483c-0.0546-0.22339-0.24324-0.37727-0.46664-0.37727
	l-6.7464-0.07448h-0.00993c-0.26807,0-0.4865,0.22836-0.49643,0.49641c0,0.27304,0.21843,0.49643,0.49643,0.49643l6.34927,0.06454
	l2.27364,9.17393c-0.03476,0.05957-0.96805,69.59886-0.96805,69.59886c-0.00496,0.278,0.2085,0.50636,0.49147,0.51134
	c0,0,0,0,0.00496,0c0.27303,0,0.49146-0.2234,0.49643-0.49643l0.86874-65.98491l3.14238,12.70355l0.17871,73.49081
	c-1.53394-1.22118-5.28691-4.02103-11.92415-7.91302c-3.17213-1.85661-6.07127-2.80975-8.50871-3.25157v-84.6058h3.98628
	c0.27303,0,0.49641-0.2234,0.49641-0.49643v-10.37033c0-0.27303-0.22339-0.49643-0.49641-0.49643h-6.84073l0.02481-10.65823
	C145.55113,128.82243,146.34543,127.12463,147.7106,125.97789z M185.36943,33.22079
	c-0.08438-0.9581-0.78929-5.98192-6.79109-8.05201V8.79168l24.32484,15.84593l-16.2083,10.55895L185.36943,33.22079z
	 M203.81166,24.04685L179.67049,8.31513h48.28235L203.81166,24.04685z M228.61305,9.06967v31.1507
	c-0.01488-0.01984-0.03474-0.03472-0.0546-0.04466L204.72009,24.6376L228.61305,9.06967z M187.23601,36.03054l16.57565-10.79726
	l24.27022,15.94522h-39.66936C188.56145,39.41617,188.17426,37.6092,187.23601,36.03054z M159.77374,63.96939l3.52957,7.98253
	l-4.25436,8.48389l-1.19141-13.84035L159.77374,63.96939z M159.41136,105.13795c-2.24883-1.99564-3.60406-4.85503-3.71823-7.86337
	c0-0.15389,0.15883-0.78436-0.35246-1.03754c-0.28297-0.14395-0.55103-0.32269-0.834-0.47658
	c-1.46944-0.79427-3.54448-1.15665-3.64377-1.16659c-0.1638-0.02481-0.30779-0.11913-0.39714-0.25318
	c-0.09929-0.13404-0.12907-0.29784-0.09433-0.46664c0.16383-0.67016,0.80421-1.12193,1.49425-1.04248
	c0.86378,0.0993,2.04031,0.43686,3.33597,0.98788c1.28575,0.55103,2.69064,1.33539,4.03595,2.33817
	c0.01987,0.00991,0.03972,0.02482,0.04469,0.03473c0.22836,0.16383,0.53615,0.11916,0.69498-0.09927
	c0.17377-0.22836,0.12907-0.53117-0.09927-0.70494c-0.41203-0.30779-0.82904-0.59569-1.24106-0.86378
	c-2.46725-1.59848-6.528-2.74025-6.6273-2.74522c-0.16379-0.02979-0.30777-0.10923-0.39713-0.25318
	c-0.09433-0.13902-0.12907-0.29787-0.08438-0.46168c0.16382-0.67516,0.8042-1.12689,1.47934-1.04748
	c1.06732,0.12411,2.6658,0.42198,4.3735,1.11201c0.42198,0.16877,1.97575,0.97298,2.3183,1.1815
	c0.49643,0.32266,0.99284,0.68504,1.46446,1.09212l0.00993,0.00993c0.08936,0.06951,0.16876,0.15389,0.25815,0.2234
	c0.09926,0.08936,0.21843,0.13898,0.34254,0.13898c0.13898,0,0.27303-0.0546,0.36238-0.1638
	c0.18864-0.19859,0.17374-0.5163-0.02483-0.70495c-0.5163-0.47158-1.04747-0.88362-1.58856-1.23609
	c-0.07448-0.0546-0.98788-0.61556-1.36517-0.81415v-0.00991c-0.32269-0.15886-1.82187-0.80917-2.22894-0.94819
	c-1.21129-0.42195-3.34097-0.83896-3.39557-0.84887c-0.16382-0.01491-0.30779-0.10426-0.39713-0.24324
	c-0.0993-0.14398-0.12907-0.30782-0.08936-0.45673c0.15886-0.6801,0.8042-1.13184,1.48927-1.04745
	c0.08936,0.00497,1.19141,0.1787,1.52403,0.24324c0.18367,0.04469,0.6255,0.15389,1.05739,0.278
	c0.44179,0.11913,0.86874,0.24324,1.0276,0.29787c0.40704,0.14395,0.83398,0.30778,1.246,0.49642
	c1.23613,0.55103,2.502,1.31054,3.63881,2.3729c0.09929,0.09432,0.22836,0.13901,0.34253,0.13901
	c0.13902,0,0.27303-0.05463,0.37233-0.16383c0.1787-0.19859,0.16879-0.51627-0.02979-0.70492
	c-1.5042-1.39993-3.20195-2.31833-4.79053-2.91402c-0.41698-0.15388-1.83675-0.59074-2.12468-0.65031
	c-0.40707-0.09929-1.56873-0.31772-1.76727-0.34254h-0.00995c-0.10919-0.03972-0.18864-0.11916-0.26308-0.20852
	c-0.08936-0.13401-0.11421-0.30778-0.07945-0.46167c0.0695-0.28793,0.2234-0.53118,0.42198-0.71983
	c0.26309-0.21843,0.59074-0.34747,0.94319-0.33756c0.03474,0,0.07944,0,0.1241,0.00993
	c0.2234,0.02979,0.47162,0.06454,0.72977,0.0993c0.35245,0.06454,0.73967,0.12907,1.14674,0.21843
	c2.93385,0.67513,6.8159,2.35305,9.06473,6.56273l0.23828,0.56593c-0.02979,0.03972-4.90469,15.93027-4.90469,15.93027
	L159.41136,105.13795z M167.81584,110.66317c-0.09929,0.10923-0.23334,0.17374-0.36736,0.17374
	c-0.11914,0-0.23831-0.04465-0.33757-0.13401l-3.49486-3.11757l0.31773-1.04745l3.84729,3.42038
	C167.97966,110.15187,167.99454,110.45468,167.81584,110.66317z M168.53069,108.5633
	c-0.09929,0.11417-0.2383,0.16877-0.36241,0.16877c-0.1241,0-0.24324-0.04466-0.3326-0.12411l-3.55936-3.17213l0.31772-1.05739
	l3.89693,3.48489C168.69452,108.047,168.71933,108.36472,168.53069,108.5633z M168.90797,106.38399
	c-0.09929,0.11914-0.24327,0.17374-0.37729,0.17374c-0.11913,0-0.2383-0.04466-0.33755-0.12904l-3.30125-2.94877l-0.00993-0.01987
	l0.31772-1.03751l3.66362,3.25655C169.07178,105.87266,169.08171,106.1755,168.90797,106.38399z M171.90637,98.23269
	c-0.09929,0.1092-0.22836,0.1638-0.36238,0.1638c-0.1241,0-0.24324-0.04466-0.33263-0.12904l-3.71822-3.32109l0.36736-0.99285
	l4.01112,3.57424C172.08011,97.70648,172.09502,98.02417,171.90637,98.23269z M178.4046,101.05735l2.97359-16.01469
	c0.04466-0.27799,0.30779-0.46167,0.57584-0.39713c0.26312,0.04466,0.44183,0.30779,0.39714,0.5659
	c0,0-3.07782,16.531-3.13245,16.5955l3.64874,3.34097c0.19855,0.18864,0.21346,0.49642,0.02481,0.70491
	c-0.09929,0.0993-0.23334,0.16383-0.35744,0.16383c-0.12904,0-0.24821-0.04469-0.34747-0.13902l-14.09354-12.90707l0.2085-1.16659
	L178.4046,101.05735z M177.06921,65.72179l-8.54846,15.58277l-4.09055-9.27322l10.39018-8.99026L177.06921,65.72179z
	 M235.94527,56.03155c0,1.56372-1.27582,2.83954-2.83954,2.83954h-57.95767l-0.01988-3.03315
	c1.57863,0.24324,5.70889,0.52124,7.25774-2.80976c0.32767-0.69501,0.48653-1.35029,0.48155-1.95095h5.42096
	c0.27303,0,0.49643-0.2234,0.49643-0.49643c0-0.27306-0.2234-0.49643-0.49643-0.49643h-5.38127l1.05246-1.20634h19.22157
	c0.27303,0,0.49643-0.22337,0.49643-0.49643c0-0.278-0.2234-0.49643-0.49643-0.49643h-18.36278l1.27086-1.45949h25.08932
	c0.41205,0,0.74464-0.3326,0.74464-0.74464c0-0.41201-0.3326-0.74464-0.74464-0.74464h-23.97237
	c0.52124-0.86378,0.87868-1.802,1.06729-2.76506h40.83597c0.27306,0,0.49643-0.21843,0.49643-0.49643V7.8187
	c0-0.278-0.22337-0.49643-0.49643-0.49643h-51.02757c-0.27303,0-0.49641,0.21843-0.49641,0.49643v17.04724
	c-0.51134-0.13401-1.06236-0.24821-1.64317-0.34254c-1.98073-0.31275-3.89693-0.28297-5.7337-0.07445V3.83239
	c0-1.56372,1.27084-2.83954,2.83954-2.83954h60.05757c1.56372,0,2.83954,1.27582,2.83954,2.83954V56.03155z M7.40585,184.83907
	c-0.03972,0-0.07945,0.00497-0.11417,0.01491L7.40585,184.83907z M40.67133,35.91141
	c-1.1964-3.33596-4.6515-5.23232-8.06195-4.60681c-0.33263,0.0546-0.66522,0.13898-0.99285,0.24821
	c-0.05463,0.01985-0.1142,0.03972-0.1688,0.05957c-1.8169,0.65528-3.27146,1.96586-4.10545,3.69838
	c-0.82902,1.73252-0.92831,3.68347-0.28296,5.48053c1.04251,2.91401,3.81257,4.73095,6.76628,4.73095
	c0.81414,0,1.64317-0.13902,2.45731-0.43192c1.81694-0.65031,3.27643-1.96582,4.10545-3.69835
	c0.20352-0.43189,0.36735-0.87371,0.47658-1.32548c0.08935-0.32763,0.14892-0.66022,0.18861-0.99285
	C41.16776,38.01625,41.03868,36.93901,40.67133,35.91141z M40.0508,39.07364c-0.03972,0.33263-0.1142,0.67019-0.21346,0.99285
	c-0.08935,0.30778-0.20852,0.60566-0.3475,0.89853c-0.71486,1.49424-1.97577,2.63108-3.54448,3.19204
	c-3.23671,1.16162-6.80601-0.49643-7.95275-3.69838c-0.55599-1.54885-0.46664-3.22677,0.24821-4.72101
	c0.69004-1.43965,1.88644-2.5417,3.37572-3.12251c0.0546-0.02485,0.1092-0.04469,0.16877-0.06454
	c0.27303-0.09929,0.54609-0.17873,0.82408-0.23333c0.43189-0.09432,0.86378-0.13898,1.29567-0.13898
	c2.55163,0,4.93447,1.55875,5.833,4.06573C40.06567,37.16738,40.16993,38.13044,40.0508,39.07364z M33.4235,38.31909
	c0,0.03476-0.00494,0.06454-0.00991,0.09432c-0.04469,0.49643-0.3475,0.65528-0.47658,0.70492
	c-0.03972,0.01488-0.10426,0.02978-0.18367,0.03475h-0.03476c-0.17374,0-0.41204-0.06951-0.65528-0.3475
	c-0.16877-0.18864-0.31772-0.45173-0.42195-0.74464c-0.19361-0.54111-0.19858-1.01767-0.02481-1.32545
	c0.07941-0.14398,0.19855-0.25318,0.35741-0.30778c0.07448-0.02485,0.14892-0.03972,0.21843-0.03972
	c0.13902,0,0.28297,0.04469,0.41701,0.13898c0.26309,0.1688,0.50137,0.50139,0.66022,0.95316
	C33.37387,37.773,33.42847,38.07088,33.4235,38.31909z M35.76167,37.50991c-0.01984,0.56593-0.34253,0.74464-0.48152,0.79427
	c-0.04966,0.01988-0.12907,0.03972-0.2234,0.03972c-0.17377,0-0.41204-0.0695-0.65528-0.3475
	c-0.1688-0.18864-0.31275-0.45173-0.42198-0.74464c-0.2879-0.80421-0.15389-1.46446,0.33263-1.6382
	c0.07445-0.02481,0.14892-0.03972,0.21843-0.03972c0.41698,0,0.83399,0.40707,1.0822,1.09214
	C35.71698,36.95889,35.76664,37.25673,35.76167,37.50991z M38.32819,39.07364c-0.09432,0.278-0.21843,0.55599-0.38223,0.82408
	c-0.03475,0.0546-0.06951,0.11417-0.10923,0.16877c-0.56096,0.8489-1.43468,1.51906-2.47219,1.89138
	c-0.58578,0.20852-1.1815,0.30781-1.7524,0.30781c-1.69777,0-3.20195-0.87371-3.72319-2.32824
	c-0.08935-0.25815,0.04469-0.54111,0.30284-0.63544c0.25315-0.08935,0.54109,0.04469,0.63541,0.30281
	c0.51133,1.42971,2.39774,2.06515,4.19977,1.41483c0.59075-0.20852,1.11696-0.53615,1.52897-0.95316
	c0.20852-0.20352,0.3922-0.43189,0.54112-0.6801c0.06454-0.10423,0.11914-0.20849,0.1688-0.31275
	c0.27303-0.6106,0.31769-1.24107,0.1092-1.81691c-0.09432-0.25815,0.03972-0.54111,0.29784-0.63544
	c0.25815-0.09432,0.54609,0.03972,0.63544,0.29787C38.55655,37.61414,38.56152,38.35384,38.32819,39.07364z M126.10616,30.25714
	v-0.44679C126.15085,29.95927,126.15085,30.11316,126.10616,30.25714z M72.5923,58.27685h-7.64321
	c-2.85832,0-5.18338-2.3253-5.18338-5.18338c0-2.85833,2.32505-5.18362,5.18338-5.18362h7.64321
	c2.85832,0,5.18338,2.3253,5.18338,5.18338C77.77568,55.95155,75.45062,58.27685,72.5923,58.27685z M64.94909,48.90269
	c-2.31051,0-4.19053,1.87978-4.19053,4.19053c0,2.31076,1.88002,4.19077,4.19053,4.19077h7.64321
	c2.31051,0,4.19053-1.87978,4.19053-4.19053s-1.88002-4.19077-4.19053-4.19077H64.94909z M57.26529,30.3145
	c-0.27876,0-0.54612-0.15731-0.67337-0.42613c-0.17622-0.37159-0.01769-0.81566,0.35414-0.99164l3.16204-1.49825
	c0.1418-0.06739,0.16483-0.19028,0.16604-0.25767c0.00121-0.06738-0.0177-0.19101-0.15707-0.26276l-3.2207-1.66089
	c-0.36553-0.18834-0.50903-0.6375-0.32045-1.00303c0.18859-0.36553,0.63799-0.50976,1.00303-0.32045l3.22046,1.66065
	c0.60599,0.31221,0.97516,0.92983,0.96376,1.61144c-0.01139,0.68186-0.40141,1.28663-1.01757,1.57848l-3.16204,1.49825
	C57.48078,30.29123,57.37218,30.3145,57.26529,30.3145z M51.40708,30.3145c-0.1069,0-0.21549-0.02327-0.31826-0.07199
	l-3.16205-1.49825c-0.61641-0.29184-1.00618-0.89686-1.01757-1.57848c-0.01139-0.68186,0.35802-1.29924,0.96425-1.61169
	l3.22022-1.66041c0.3665-0.18883,0.81493-0.0446,1.00303,0.32045c0.18858,0.36553,0.04509,0.81469-0.32045,1.00303l-3.22046,1.66065
	c-0.13962,0.07199-0.15877,0.19561-0.15756,0.263c0.00121,0.06739,0.02424,0.19052,0.16604,0.25767l3.16204,1.49825
	c0.37183,0.17598,0.53036,0.62005,0.35414,0.99164C51.95319,30.15718,51.68583,30.3145,51.40708,30.3145z M126.0168,29.62667
	l-0.9035-1.37014l-0.07445-0.11914c0.02482-0.02481,0.04963-0.0546,0.07445-0.08438
	c0.39713-0.48155,0.63544-1.09711,0.63544-1.76727c0-0.67019-0.2383-1.28576-0.63544-1.76727
	c-0.51627-0.63047-1.3056-1.03754-2.18922-1.03754c-1.55878,0-2.82466,1.26091-2.82466,2.80482
	c0,1.54388,1.26588,2.80479,2.82466,2.80479c0.30281,0,0.59572-0.04963,0.86874-0.13404l0.97794,1.48928
	c0.08438,0.12908,0.20849,0.2234,0.34254,0.27803c0.08935,0.03472,0.18864,0.0546,0.28297,0.0546
	c0.13901,0,0.28297-0.03972,0.40707-0.12411c0.14893-0.09929,0.25319-0.23831,0.30282-0.39713v-0.44679
	C126.0863,29.74581,126.05653,29.68624,126.0168,29.62667z M121.58869,26.28574c0-0.72479,0.59572-1.31554,1.33539-1.31554
	c0.7347,0,1.33539,0.59075,1.33539,1.31554c0,0.72476-0.60069,1.31551-1.33539,1.31551
	C122.18441,27.60125,121.58869,27.0105,121.58869,26.28574z M122.49713,12.59928c0.19858,0.19358,0.19858,0.50633,0,0.69995
	c-0.09429,0.09929-0.22337,0.14395-0.34747,0.14395c-0.12907,0-0.25318-0.04466-0.35248-0.14395l-1.24106-1.24106l-1.2361,1.24106
	c-0.09929,0.09929-0.2234,0.14395-0.35247,0.14395s-0.25318-0.04466-0.35244-0.14395c-0.19362-0.19361-0.19362-0.50636,0-0.69995
	l1.24106-1.24106l-1.24106-1.24106c-0.19362-0.19361-0.19362-0.50636,0-0.69998c0.19358-0.19361,0.5113-0.19361,0.70491,0
	l1.2361,1.24106l1.24106-1.24106c0.19362-0.19361,0.50636-0.19361,0.69995,0c0.19858,0.19361,0.19858,0.50636,0,0.69998
	l-1.24107,1.24106L122.49713,12.59928z M38.42245,13.91282c-1.42117,0-2.57715-1.14604-2.57715-2.55485
	c0-1.40856,1.15598-2.5546,2.57715-2.5546c1.42116,0,2.57739,1.14604,2.57739,2.5546
	C40.99984,12.76678,39.84361,13.91282,38.42245,13.91282z M38.42245,9.79622c-0.87359,0-1.5843,0.70052-1.5843,1.56175
	c0,0.86123,0.7107,1.562,1.5843,1.562c0.87383,0,1.58454-0.70076,1.58454-1.562
	C40.00698,10.49675,39.29628,9.79622,38.42245,9.79622z M44.70073,13.91282c-1.42116,0-2.57714-1.14604-2.57714-2.55485
	c0-1.40856,1.15598-2.5546,2.57714-2.5546c1.42117,0,2.57715,1.14604,2.57715,2.5546
	C47.27787,12.76678,46.12189,13.91282,44.70073,13.91282z M44.70073,9.79622c-0.87359,0-1.58429,0.70052-1.58429,1.56175
	c0,0.86123,0.7107,1.562,1.58429,1.562s1.5843-0.70076,1.5843-1.562C46.28502,10.49675,45.57432,9.79622,44.70073,9.79622z
	 M50.97901,13.91282c-1.42117,0-2.57715-1.14604-2.57715-2.55485c0-1.40856,1.15598-2.5546,2.57715-2.5546
	c1.42116,0,2.57714,1.14604,2.57714,2.5546C53.55615,12.76678,52.40017,13.91282,50.97901,13.91282z M50.97901,9.79622
	c-0.87359,0-1.5843,0.70052-1.5843,1.56175c0,0.86123,0.7107,1.562,1.5843,1.562s1.58429-0.70076,1.58429-1.562
	C52.5633,10.49675,51.8526,9.79622,50.97901,9.79622z M118.43637,121.9221c-0.14395-0.6106-0.5113-1.08717-1.03254-1.33539
	c-0.5163-0.25318-1.11696-0.25318-1.68289,0.00993c-0.54111,0.24325-0.98788,0.69498-1.26588,1.26588
	c-0.59075,1.20631-0.2234,2.60126,0.81411,3.10763c0.25318,0.12411,0.52621,0.18368,0.80424,0.18368
	c0.83894,0,1.69777-0.55103,2.14453-1.4595C118.49594,123.12344,118.57042,122.493,118.43637,121.9221z M117.33929,123.26743
	c-0.35248,0.72476-1.09215,1.09708-1.64317,0.82405c-0.35744-0.17374-0.55106-0.56593-0.55106-1.01766
	c0-0.25318,0.06454-0.52621,0.18864-0.78436c0.17874-0.36735,0.46168-0.65529,0.78933-0.80421
	c0.15887-0.07445,0.31773-0.1092,0.47161-0.1092c0.13402,0,0.26309,0.02979,0.38223,0.08438
	c0.25318,0.12411,0.43188,0.36736,0.51133,0.68507C117.57259,122.50291,117.518,122.90008,117.33929,123.26743z M85.49981,136.32024
	c-0.07962,0-0.16067-0.01955-0.23553-0.06079c-0.23599-0.13039-0.32181-0.42719-0.19117-0.66344l1.11754-2.02458
	c0.12968-0.23601,0.4267-0.32205,0.66318-0.19142c0.23601,0.1304,0.32182,0.42717,0.19119,0.66342l-1.11754,2.0246
	C85.8388,136.22919,85.67193,136.32024,85.49981,136.32024z M88.06292,131.67628c-0.07963,0-0.16068-0.01955-0.23553-0.06079
	c-0.23599-0.13016-0.32182-0.42719-0.19165-0.66342l9.74895-17.66425c0.38667-0.69895,1.12183-1.13329,1.91995-1.13352
	l38.87711-0.01645l0,0c0.26936,0,0.4882,0.21837,0.4882,0.48797c0,0.26962-0.21835,0.48846-0.4882,0.48846l-38.87711,0.01644
	c-0.44245,0.00024-0.85057,0.24126-1.06512,0.62933l-9.74847,17.66402C88.4019,131.58522,88.23503,131.67628,88.06292,131.67628z" class="svg-style-0"/></svg>